<svg xmlns="http://www.w3.org/2000/svg" width="41" height="41" viewBox="0 0 41 41"><g transform="translate(-2049 -3051)"><g transform="translate(2049 3051.073)"><rect width="41" height="41" transform="translate(0 -0.072)" fill="#0012b5"/></g><g transform="translate(-0.74 0.551)"><g transform="translate(2009.969 3056.449)"><path d="M67.341,0a6.818,6.818,0,0,0-6.81,6.81c0,3.615,6.179,12.06,6.442,12.417l.246.334a.153.153,0,0,0,.246,0l.245-.334c.263-.358,6.442-8.8,6.442-12.417A6.818,6.818,0,0,0,67.341,0Zm0,4.371A2.439,2.439,0,1,1,64.9,6.81,2.442,2.442,0,0,1,67.341,4.371Z" transform="translate(0)" fill="#fff"/></g><path d="M11.718,3.45A4.077,4.077,0,1,1,8.8,4.624,4.077,4.077,0,0,1,11.718,3.45Zm8.135,16.288H3.51V18.385c0-2.706,5.484-4.2,8.135-4.2s8.135,1.5,8.135,4.2v1.353Z" transform="translate(2052.23 3066.479)" fill="#fff"/></g></g></svg>